<svg id="Layer_1" data-name="Layer 1" xmlns="http://www.w3.org/2000/svg" viewBox="0 0 28.39 5.42"><defs><style>.cls-1{fill:#fff;}</style></defs><path class="cls-1" d="M26.63,0a1.73,1.73,0,0,1,1.76,1.75,1.77,1.77,0,0,1-3.53,0A1.74,1.74,0,0,1,26.63,0m0,.37a1.34,1.34,0,0,0-1.37,1.38,1.37,1.37,0,1,0,2.73,0A1.35,1.35,0,0,0,26.63.37m-.05,1.51h-.32v.86h-.34v-2h.79c.49,0,.75.17.75.57s-.23.51-.54.54l.57.88H27.1Zm0-.28c.26,0,.48,0,.48-.3S26.85,1,26.65,1h-.39V1.6Z"/><path class="cls-1" d="M21.86,4.16,18.46.68A2,2,0,0,0,17.28,0a3.09,3.09,0,0,0-1.13,0,1.22,1.22,0,0,0-1,1.18V5.37h1.78V1.32a.15.15,0,0,1,.1-.17.23.23,0,0,1,.14,0l.12.09h0l3.39,3.48a2,2,0,0,0,1.18.64,3.13,3.13,0,0,0,1.13,0,1.21,1.21,0,0,0,1-1.18V.05H22.21V4.1c0,.08,0,.13-.1.16a.14.14,0,0,1-.14,0l-.12-.08Z"/><path class="cls-1" d="M5.29,4.48H3.55a1.76,1.76,0,0,1-1.6-1,2.14,2.14,0,0,1-.17-.84V0H0v3c0,1.6.83,2.14,2.39,2.3l.17,0H7.11V4.48Z"/><path class="cls-1" d="M13.38.93h1.2V0H13.17a15.59,15.59,0,0,0-4,.49A4.59,4.59,0,0,0,6.57,2a1.27,1.27,0,0,0-.24.73,1.17,1.17,0,0,0,.11.49C7,4.46,9.65,5.37,13.17,5.37h1.41V4.48H12.84C10.54,4.48,8.33,4,8.18,3h6.4V2.29H8.18C8.25,1.76,9.93.93,13.38.93Z"/></svg>