<?xml version="1.0" encoding="utf-8"?>
<!-- Generator: Adobe Illustrator 25.2.3, SVG Export Plug-In . SVG Version: 6.00 Build 0)  -->
<svg version="1.1" id="Layer_5" xmlns="http://www.w3.org/2000/svg" xmlns:xlink="http://www.w3.org/1999/xlink" x="0px" y="0px"
	 viewBox="0 0 322.3 69.9" style="enable-background:new 0 0 322.3 69.9;" xml:space="preserve">
<style type="text/css">
	.st0{fill:#FFFFFF;}
</style>
<g>
	<g>
		<path class="st0" d="M216.5,49.2c0-0.1-0.1-0.2-0.2-0.2h-5.5c-0.1,0-0.2,0.1-0.2,0.2l-5.6,16.2c0,0.1,0,0.2,0,0.2
			c0,0.1,0.1,0.1,0.2,0.1h3.7c0.1,0,0.2-0.1,0.2-0.2l1.3-3.9h5.1l1.3,3.9c0,0.1,0.1,0.2,0.2,0.2h5.1c0.1,0,0.2,0,0.2-0.1
			c0-0.1,0.1-0.2,0-0.2L216.5,49.2z M214.4,58.3h-3l0.9-2.8c0.2-0.7,0.4-1.5,0.6-2.1c0.2,0.6,0.4,1.3,0.6,2c0,0,0,0,0,0L214.4,58.3z
			"/>
		<path class="st0" d="M239.9,49h-3.6c-0.1,0-0.2,0.1-0.2,0.2v8.8c-0.5-0.9-1.1-1.8-1.8-2.7l-3.5-4.5c-1.2-1.5-2.4-2.1-3.9-2.1
			c-1.9,0-3.2,1.1-3.2,2.7c0,0.1,0,0.1,0.1,0.2l0.2,0.1c0.1,0.1,0.2,0.1,0.3,0c0.1-0.1,0.2-0.1,0.3-0.1c0.2,0,0.6,0,0.6,0.8v12.9
			c0,0.1,0.1,0.2,0.2,0.2h3.6c0.1,0,0.2-0.1,0.2-0.2v-8.7c0.5,0.8,0.9,1.4,1.4,2l5.6,6.8c0,0.1,0.1,0.1,0.2,0.1h3.6
			c0.1,0,0.2-0.1,0.2-0.2V49.3C240.2,49.1,240.1,49,239.9,49z"/>
		<path class="st0" d="M229.2,48.1C229.3,48.1,229.3,48.1,229.2,48.1c0.1,0,0.1,0,0.1,0l0.2,0c0.1,0,0.2-0.1,0.2-0.2
			c0.1-0.5,0.4-1,1-1c0.6,0,1.2,0.2,1.9,0.5c0.7,0.3,1.4,0.6,2.1,0.6c1.4,0,2.3-0.8,2.3-2.1c0-0.9-0.6-1.7-1.4-2c0,0-0.1,0-0.1,0
			l-0.2,0c-0.1,0-0.2,0.1-0.2,0.2c-0.1,0.2-0.3,1-1,1c-0.6,0-1.2-0.2-1.9-0.5c-0.7-0.3-1.4-0.5-2.1-0.5c-1.4,0-2.3,0.8-2.3,2.1
			C227.9,46.9,228.4,47.8,229.2,48.1z"/>
		<path class="st0" d="M251.6,48.6c-5.4,0-9,3.3-9,8.3c0,5.6,3.4,9.3,8.7,9.3c5.4,0,9.2-3.9,9.2-9.5
			C260.5,51.6,257.2,48.6,251.6,48.6z M251.6,63c-3.5,0-3.6-4.9-3.6-5.9c0-2,0.5-5.3,3.6-5.3c3.4,0,3.6,4.4,3.6,5.2
			C255.2,59.2,254.4,63,251.6,63z"/>
		<path class="st0" d="M270,55.6c-1.6-0.8-2.5-1.4-2.5-2.2c0-0.8,0.8-1.2,2-1.2c1,0,2.1,0.3,2.8,0.5c0.1,0,0.1,0,0.2,0
			c0.1,0,0.1-0.1,0.1-0.2l0.5-3.1c0-0.1-0.1-0.3-0.2-0.3c-1.1-0.2-2.2-0.3-3.4-0.3c-5,0-7.3,2.8-7.3,5.5c0,2.8,1.9,4,3.9,5
			c1.9,0.9,2.3,1.3,2.3,2c0,1-1,1.6-2.6,1.6c-1.2,0-2.4-0.3-3.2-0.8c-0.1-0.1-0.2-0.1-0.3,0l-0.2,0.1c-0.1,0-0.1,0.1-0.1,0.2
			c0,0.1-0.1,0.3-0.1,0.5c0,3.3,3.6,3.3,4.8,3.3c5.2,0,7-3,7-5.6C273.9,57.8,271.9,56.5,270,55.6z"/>
		<path class="st0" d="M310,36.1c-1-7.9-4.5-14.4-9.8-18.3c-4-2.9-5.2-3.5-6.4-3.7c0,0,0,0,0,0c-0.1,0-0.2,0-0.2,0.1
			c0,0.1,0,0.2,0.1,0.2c0.1,0.1,0.2,0.1,0.3,0.2c0.3,0.2,0.7,0.4,5.7,4c5.1,3.7,8.4,10,9.4,17.6c1.2,9.5-2.5,19-9.9,25.5
			c-5.9,5.2-13.5,7.7-20.6,6.9c-1-0.1-1.9-0.3-2.8-0.5c0,0,0,0-0.1,0c-0.3,0-0.5,0.1-0.6,0.4c0,0.1,0,0.3,0.1,0.4
			c0.1,0.1,0.2,0.2,0.3,0.2c1,0.2,2,0.4,3,0.5c1.9,0.2,3.9,0.2,5.8,0c5.7-0.7,11.1-3.2,15.6-7.2C307.4,55.8,311.2,45.9,310,36.1z"/>
		<path class="st0" d="M279.1,68c7,0.5,15.4-2.5,16.5-9.4c0.9-5.6-4.8-7.1-5.7-2c-2.6-0.7-2.3,2.8-2.8,4.9
			C286.4,64.1,282.6,66.8,279.1,68z"/>
		<path class="st0" d="M299,66.2c3.3-3.5,11.9-6.9,17.5-4.6c4.5,1.9,3.4,7-0.8,5.4c-0.5,2.3-3.1,0.7-4.8,0
			C306.9,65.3,303,65.4,299,66.2z"/>
		<path class="st0" d="M305.8,60.3c0.8-4.4,5.8-11.1,11.3-12c4.4-0.7,6.1,3.8,2.1,4.6c0.8,2.1-2.1,2-3.7,2.3
			C311.4,55.8,308.5,57.7,305.8,60.3z"/>
		<path class="st0" d="M311.1,49.2c-0.4-3.9,2.2-10.9,6.7-13c3.6-1.7,6.2,1.8,2.9,3.4c1.2,1.6-1.3,2.2-2.6,2.8
			C314.8,44,312.8,46.3,311.1,49.2z"/>
		<path class="st0" d="M312,38.8c-1.6-3.2-1.6-9.9,1.6-13.1c2.5-2.5,5.8-0.3,3.5,2c1.5,1-0.4,2.3-1.3,3.2
			C313.5,33.3,312.5,35.9,312,38.8z"/>
		<path class="st0" d="M310,29.4c-1.9-2.5-3.1-8.3-0.9-11.6c1.7-2.6,5-1.3,3.4,1.1c1.5,0.6,0.1,2-0.6,3
			C310.3,24.4,309.9,26.8,310,29.4z"/>
		<path class="st0" d="M306.6,21.7c-1.8-1.5-3.7-5.4-2.7-8.1c0.8-2.2,3.3-1.8,2.6,0.2c1.1,0.2,0.4,1.4,0.1,2.2
			C305.9,18,306.1,19.8,306.6,21.7z"/>
		<path class="st0" d="M302.2,17.5c-1.8-0.3-4.5-2.1-4.9-4.3c-0.3-1.7,1.5-2.4,1.8-0.8c0.8-0.3,0.8,0.8,0.9,1.4
			C300.3,15.4,301.1,16.5,302.2,17.5z"/>
		<path class="st0" d="M296.9,61.4c5.1-3.1,8.4-10.2,5.6-15.6c-2.2-4.3-6.9-2.6-4.9,1.4c-2.1,0.8-0.2,3.1,0.5,4.8
			C299,54.2,298.7,58.8,296.9,61.4z"/>
		<path class="st0" d="M305,49.1c2.7-4.1,2.7-10.5-1.3-13.6c-3.2-2.5-6.1,0.5-3.2,2.8c-1.3,1.3,1,2.4,2.1,3.4
			C304,43,305.5,46.5,305,49.1z"/>
		<path class="st0" d="M306.9,36.3c0.4-3.8-1.9-8.3-5.8-9.1c-3.1-0.6-4.1,2.5-1.2,3.1c-0.5,1.4,1.6,1.4,2.7,1.7
			C304.1,32.3,306.3,34.3,306.9,36.3z"/>
		<path class="st0" d="M304.2,26.6c-0.9-2.9-3.9-5.4-6.9-4.8c-2.4,0.5-2.2,2.9,0,2.6c0.1,1.1,1.5,0.5,2.4,0.4
			C300.9,24.6,303.1,25.3,304.2,26.6z"/>
		<path class="st0" d="M298.8,20.1c-1-1.4-3.3-2.5-5-1.8c-1.4,0.6-0.8,1.9,0.5,1.4c0.3,0.6,1,0.1,1.5-0.1
			C296.5,19.4,298,19.5,298.8,20.1z"/>
		<path class="st0" d="M215.7,31.5c1.1,0.4,2.4,0.6,4.1,0.6c4,0,5.6-2.3,5.6-6.6v-0.8c0-3.9-1.7-5.9-5-5.9c-3.3,0-4.6,1.3-5.2,3.1
			h-7.5l2.3-21.1h26.3c-1.6,6.8-4.8,8.1-12.2,8.1h-8l-0.8,6.4c1.8-1.8,4.7-3.1,8.5-3.1c7.9,0,12.7,4.4,12.7,12.2c0,8.8-5.7,14-16,14
			c-8.8,0-14.2-3.2-14.2-9.1c0-4.1,2.4-6.4,6.2-6.4c3.3,0,5.2,1.9,5.2,4.7C217.7,29.2,217.1,30.6,215.7,31.5z"/>
		<path class="st0" d="M238.4,19.2c0-12.3,6.2-19.2,17.3-19.2c10.9,0,17,6.9,17,19.2c0,12.4-6.2,19.2-17.2,19.2
			C244.4,38.5,238.4,31.6,238.4,19.2z M261.3,22.5V16c0-6.8-1.6-9.6-5.7-9.6c-4.1,0-5.7,2.7-5.7,9.6v6.6c0,6.9,1.6,9.6,5.7,9.6
			C259.6,32.1,261.3,29.3,261.3,22.5z"/>
		<path class="st0" d="M168.6,36.1c1-7.9,4.5-14.4,9.8-18.3c4-2.9,5.2-3.5,6.4-3.7c0,0,0,0,0,0c0.1,0,0.2,0,0.2,0.1
			c0,0.1,0,0.2-0.1,0.2c-0.1,0.1-0.2,0.1-0.3,0.2c-0.3,0.2-0.7,0.4-5.7,4c-5.1,3.7-8.4,10-9.4,17.6c-1.2,9.5,2.5,19,9.9,25.5
			c5.9,5.2,13.5,7.7,20.6,6.9c1-0.1,1.9-0.3,2.8-0.5c0,0,0,0,0.1,0c0.3,0,0.5,0.1,0.6,0.4c0,0.1,0,0.3-0.1,0.4
			c-0.1,0.1-0.2,0.2-0.3,0.2c-1,0.2-2,0.4-3,0.5c-1.9,0.2-3.9,0.2-5.8,0c-5.7-0.7-11.1-3.2-15.6-7.2
			C171.2,55.8,167.3,45.9,168.6,36.1z"/>
		<path class="st0" d="M199.5,68c-7,0.5-15.4-2.5-16.5-9.4c-0.9-5.6,4.8-7.1,5.7-2c2.6-0.7,2.3,2.8,2.8,4.9
			C192.1,64.1,195.9,66.8,199.5,68z"/>
		<path class="st0" d="M179.5,66.2c-3.3-3.5-11.9-6.9-17.5-4.6c-4.5,1.9-3.4,7,0.8,5.4c0.5,2.3,3.1,0.7,4.8,0
			C171.7,65.3,175.5,65.4,179.5,66.2z"/>
		<path class="st0" d="M172.8,60.3c-0.8-4.4-5.8-11.1-11.3-12c-4.4-0.7-6.1,3.8-2.1,4.6c-0.8,2.1,2.1,2,3.7,2.3
			C167.2,55.8,170.1,57.7,172.8,60.3z"/>
		<path class="st0" d="M167.4,49.2c0.4-3.9-2.2-10.9-6.7-13c-3.6-1.7-6.2,1.8-2.9,3.4c-1.2,1.6,1.3,2.2,2.6,2.8
			C163.7,44,165.8,46.3,167.4,49.2z"/>
		<path class="st0" d="M166.6,38.8c1.6-3.2,1.6-9.9-1.6-13.1c-2.5-2.5-5.8-0.3-3.5,2c-1.5,1,0.4,2.3,1.3,3.2
			C165.1,33.3,166,35.9,166.6,38.8z"/>
		<path class="st0" d="M168.6,29.4c1.9-2.5,3.1-8.3,0.9-11.6c-1.7-2.6-5-1.3-3.4,1.1c-1.5,0.6-0.1,2,0.6,3
			C168.3,24.4,168.6,26.8,168.6,29.4z"/>
		<path class="st0" d="M172,21.7c1.8-1.5,3.7-5.4,2.7-8.1c-0.8-2.2-3.3-1.8-2.6,0.2c-1.1,0.2-0.4,1.4-0.1,2.2
			C172.6,18,172.5,19.8,172,21.7z"/>
		<path class="st0" d="M176.4,17.5c1.8-0.3,4.5-2.1,4.9-4.3c0.3-1.7-1.5-2.4-1.8-0.8c-0.8-0.3-0.8,0.8-0.9,1.4
			C178.2,15.4,177.4,16.5,176.4,17.5z"/>
		<path class="st0" d="M181.7,61.4c-5.1-3.1-8.4-10.2-5.6-15.6c2.2-4.3,6.9-2.6,4.9,1.4c2.1,0.8,0.2,3.1-0.5,4.8
			C179.6,54.2,179.8,58.8,181.7,61.4z"/>
		<path class="st0" d="M173.5,49.1c-2.7-4.1-2.7-10.5,1.3-13.6c3.2-2.5,6.1,0.5,3.2,2.8c1.3,1.3-1,2.4-2.1,3.4
			C174.5,43,173.1,46.5,173.5,49.1z"/>
		<path class="st0" d="M171.6,36.3c-0.4-3.8,1.9-8.3,5.8-9.1c3.1-0.6,4.1,2.5,1.2,3.1c0.5,1.4-1.6,1.4-2.7,1.7
			C174.5,32.3,172.2,34.3,171.6,36.3z"/>
		<path class="st0" d="M174.4,26.6c0.9-2.9,3.9-5.4,6.9-4.8c2.4,0.5,2.2,2.9,0,2.6c-0.1,1.1-1.5,0.5-2.4,0.4
			C177.6,24.6,175.4,25.3,174.4,26.6z"/>
		<path class="st0" d="M179.7,20.1c1-1.4,3.3-2.5,5-1.8c1.4,0.6,0.8,1.9-0.5,1.4c-0.3,0.6-1,0.1-1.5-0.1
			C182,19.4,180.6,19.5,179.7,20.1z"/>
	</g>
	<g>
		<g>
			<path class="st0" d="M147,34.5c2.7,0,5.1,2.1,5.1,5.1c0,3-2.4,5.1-5.1,5.1c-2.7,0-5.1-2-5.1-5.1C141.9,36.5,144.3,34.5,147,34.5
				 M147,35.5c-2.2,0-4,1.7-4,4c0,2.3,1.8,4,4,4c2.2,0,4-1.7,4-4C151,37.2,149.2,35.5,147,35.5 M146.9,39.9h-0.9v2.5h-1v-5.8h2.3
				c1.5,0,2.2,0.5,2.2,1.7c0,1.1-0.7,1.5-1.6,1.6l1.7,2.5h-1.1L146.9,39.9z M147,39.1c0.7,0,1.4-0.1,1.4-0.9c0-0.7-0.7-0.8-1.3-0.8
				h-1.1v1.7H147z"/>
			<g>
				<path class="st0" d="M124.7,57.9L105.4,38c-2.8-2.7-4.6-3.3-6.7-3.6c-1.7-0.3-3.9-0.4-6.5,0.1c-2.9,0.6-5.9,2.8-5.9,6.7v23.5
					h10.1V42.1c0,0,0-0.2,0-0.4c0-0.4,0.1-0.8,0.6-0.9c0.2-0.1,0.6,0,0.8,0.1c0.4,0.2,0.6,0.5,0.6,0.5v0l19.4,19.9
					c2.8,2.7,4.6,3.3,6.7,3.6c1.7,0.3,3.9,0.4,6.5-0.1c2.9-0.6,5.9-2.8,5.9-6.7V34.4h-10.1v22.7c0,0,0,0.2,0,0.4
					c0,0.4-0.1,0.8-0.6,0.9c-0.2,0.1-0.6,0-0.8-0.1C125,58.2,124.7,57.9,124.7,57.9L124.7,57.9z"/>
				<path class="st0" d="M30.2,59.8h-4.8h-5.1c0,0,0,0,0,0c0,0,0,0,0,0c-4,0-7.5-2.4-9.1-5.8c-0.6-1.3-1-3.2-1-4.8
					c0-0.2,0-0.8,0-0.9V34.4L0,34.4c0,2.8,0,11,0,17.1c0,9.2,4.7,12.2,13.6,13.1c0.3,0,0.6,0.1,1,0.1c0,0,0.6,0,1,0l0.8,0h24.2v-5.1
					H30.2z"/>
				<path class="st0" d="M76.4,39.5h6.8v-5.1l-8,0c-8.7,0-16.6,1.1-22.9,2.8c-7.2,1.9-12.5,4.8-14.8,8.3c-0.9,1.3-1.4,2.7-1.4,4.2
					c0,1,0.2,1.9,0.6,2.8c3.2,7.1,18.3,12.4,38.4,12.4h8v-5.1h-9.9c-13.1,0-25.7-3-26.6-8.7h36.5v-3.8H46.7
					C47.1,44.2,56.7,39.5,76.4,39.5z"/>
			</g>
		</g>
		<g>
			<path class="st0" d="M9.2,20.9c-0.2-1.3-1.2-2-2.7-2c-2.2,0-3.1,2-3.1,3.9c0,2,0.9,3.9,3.1,3.9c1.6,0,2.5-0.9,2.7-2.4h3.4
				c-0.2,3.4-2.7,5.4-6,5.4c-4,0-6.6-3.1-6.6-6.9c0-3.8,2.6-6.9,6.6-6.9c2.9,0,6,1.8,6,5H9.2z"/>
			<path class="st0" d="M18.1,16.1h3.5l5,13.2h-3.6L22.1,27h-4.6l-0.8,2.4h-3.5L18.1,16.1z M18.3,24.4h3l-1.5-4.6h0L18.3,24.4z"/>
			<path class="st0" d="M27.5,16.1H31v10.3h6.2v3h-9.6V16.1z"/>
			<path class="st0" d="M38.9,16.1h10.6v2.8h-7.1v2.3h6.5v2.7h-6.5v2.5h7.3v3H38.9V16.1z"/>
			<path class="st0" d="M51.6,16.1h3.5l4.6,8.2h0v-8.2H63v13.2h-3.5l-4.6-8.3h0v8.3h-3.2V16.1z"/>
			<path class="st0" d="M65.3,16.1l5.7,0c4.1,0,6.5,2.5,6.5,6.6c0,4.3-2.5,6.7-6.5,6.7h-5.7V16.1z M68.8,26.4h1.6
				c2.6-0.1,3.7-1.1,3.7-3.7c0-2.4-1.3-3.6-3.7-3.6h-1.6V26.4z"/>
			<path class="st0" d="M83,16.1h3.5l4.9,13.2h-3.6L87.1,27h-4.6l-0.8,2.4h-3.5L83,16.1z M83.2,24.4h3l-1.5-4.6h0L83.2,24.4z"/>
			<path class="st0" d="M92.5,16.1h6.8c2.3,0,4.6,1.1,4.6,3.7c0,1.4-0.7,2.8-2.1,3.3v0c1.4,0.3,1.8,1.9,1.9,3.2c0,0.6,0.1,2.5,0.6,3
				h-3.4c-0.3-0.4-0.4-1.7-0.4-2.1c-0.1-1.3-0.3-2.7-1.9-2.7h-2.6v4.8h-3.5V16.1z M95.9,21.9h2.9c1,0,1.6-0.6,1.6-1.6
				c0-1-0.8-1.4-1.7-1.4h-2.7V21.9z"/>
			<path class="st0" d="M105.9,16.1h3.5v13.2h-3.5V16.1z"/>
			<path class="st0" d="M117.7,15.9c4.2,0,6.5,3.1,6.5,6.9c0,3.8-2.4,6.9-6.5,6.9c-4.2,0-6.5-3.1-6.5-6.9
				C111.2,18.9,113.6,15.9,117.7,15.9z M117.7,26.7c2.2,0,3.1-2,3.1-3.9c0-2-0.9-3.9-3.1-3.9c-2.2,0-3.1,2-3.1,3.9
				C114.7,24.7,115.5,26.7,117.7,26.7z"/>
			<path class="st0" d="M128.8,24.9c0.1,1.6,1,2.1,2.5,2.1c1,0,2.1-0.4,2.1-1.4c0-1.2-1.9-1.4-3.8-1.9c-1.9-0.5-3.9-1.4-3.9-3.8
				c0-2.9,2.9-4,5.4-4c2.6,0,5.3,1.3,5.3,4.3H133c0.1-1.2-1.1-1.6-2.1-1.6c-0.7,0-1.7,0.3-1.7,1.1c0,1,1.9,1.2,3.8,1.7
				c1.9,0.5,3.8,1.4,3.8,3.8c0,3.4-2.9,4.4-5.8,4.4c-3,0-5.7-1.3-5.7-4.7H128.8z"/>
		</g>
	</g>
</g>
</svg>
